<?xml version="1.0" encoding="UTF-8" standalone="no"?>
<!DOCTYPE svg PUBLIC "-//W3C//DTD SVG 1.1//EN" "http://www.w3.org/Graphics/SVG/1.1/DTD/svg11.dtd">
<svg width="100%" height="100%" viewBox="0 0 358 80" version="1.1" xmlns="http://www.w3.org/2000/svg" xmlns:xlink="http://www.w3.org/1999/xlink" xml:space="preserve" xmlns:serif="http://www.serif.com/" style="fill-rule:evenodd;clip-rule:evenodd;stroke-linejoin:round;stroke-miterlimit:2;">
    <g transform="matrix(1,0,0,1,-539.417,-328.613)">
        <g transform="matrix(1.00065,0,0,1.00065,78.8861,193.475)">
            <g transform="matrix(80,0,0,80,820.963,203.591)">
            </g>
            <text x="609.048px" y="203.591px" style="font-family:'Arial-BoldMT', 'Arial', sans-serif;font-weight:700;font-size:80px;">V<tspan x="656.47px 714.244px " y="203.591px 203.591px ">AS</tspan>P</text>
        </g>
        <g transform="matrix(1.00065,0,0,1.00065,8.3992,4.54593)">
            <g transform="matrix(0.557194,0,0,0.557194,337.993,212.845)">
                <path d="M488.104,250.733C483.815,248.257 482.343,242.764 484.819,238.475C487.296,234.186 492.788,232.714 497.077,235.191L545.448,263.118C548.225,264.721 549.935,267.683 549.935,270.889C549.935,274.095 548.225,277.057 545.448,278.66L497.077,306.587C492.788,309.063 487.296,307.592 484.819,303.303C482.343,299.013 483.815,293.521 488.104,291.044L523.014,270.889L488.104,250.733Z" style="fill:rgb(131,66,164);"/>
            </g>
            <g transform="matrix(1,0,0,1,198.251,92.9169)">
                <path d="M441.163,303.816C438.403,303.816 436.163,301.576 436.163,298.816C436.163,296.056 438.403,293.816 441.163,293.816L467.529,293.816C470.289,293.816 472.529,296.056 472.529,298.816C472.529,301.576 470.289,303.816 467.529,303.816L441.163,303.816Z" style="fill:rgb(131,66,164);"/>
            </g>
        </g>
        <g transform="matrix(1.00065,0,0,1.00065,8.3992,4.54593)">
            <g transform="matrix(1,0,0,1,98.4521,92.8942)">
                <path d="M490.09,303.146L441.72,275.219C440.173,274.326 439.22,272.675 439.22,270.889C439.22,269.103 440.173,267.452 441.72,266.559L490.09,238.632C491.637,237.739 493.543,237.739 495.09,238.632C496.637,239.525 497.59,241.176 497.59,242.962L497.59,298.816C497.59,300.602 496.637,302.253 495.09,303.146C493.543,304.039 491.637,304.039 490.09,303.146ZM487.59,290.156L487.59,251.623L454.22,270.889L487.59,290.156Z" style="fill:rgb(168,44,53);"/>
            </g>
            <g transform="matrix(-0.520833,-0.90211,0.90211,-0.520833,640.147,885.267)">
                <circle cx="480.341" cy="222.893" r="11.52" style="fill:rgb(168,44,53);"/>
            </g>
            <g transform="matrix(1.04167,0,0,1.04167,42.3163,131.603)">
                <circle cx="480.341" cy="222.893" r="11.52" style="fill:rgb(168,44,53);"/>
            </g>
            <g transform="matrix(0.520833,-0.90211,0.90211,0.520833,139.791,708.941)">
                <circle cx="480.341" cy="222.893" r="11.52" style="fill:rgb(168,44,53);"/>
            </g>
        </g>
    </g>
</svg>
